HIERARCHY
ROOT Hips
{
	OFFSET 0.00000 0.00000 0.00000
	CHANNELS 6 Xposition Yposition Zposition Zrotation Yrotation Xrotation 
	JOINT LHipJoint
	{
		OFFSET 0 0 0
		CHANNELS 3 Zrotation Yrotation Xrotation
		JOINT LeftHip
		{
			OFFSET 1.28858 -1.83292 1.03970
			CHANNELS 3 Zrotation Yrotation Xrotation
			JOINT LeftKnee
			{
				OFFSET 2.47846 -6.80952 0.00000
				CHANNELS 3 Zrotation Yrotation Xrotation
				JOINT LeftAnkle
				{
					OFFSET 2.75274 -7.56311 0.00000
					CHANNELS 3 Zrotation Yrotation Xrotation
					JOINT LeftToe
					{
						OFFSET 0.12848 -0.35301 1.68223
						CHANNELS 3 Zrotation Yrotation Xrotation
						End Site
						{
							OFFSET 0.00000 -0.00000 0.87311
						}
					}
				}
			}
		}
	}
	JOINT RHipJoint
	{
		OFFSET 0 0 0
		CHANNELS 3 Zrotation Yrotation Xrotation
		JOINT RightHip
		{
			OFFSET -1.31183 -1.83292 1.03970
			CHANNELS 3 Zrotation Yrotation Xrotation
			JOINT RightKnee
			{
				OFFSET -2.44740 -6.72417 0.00000
				CHANNELS 3 Zrotation Yrotation Xrotation
				JOINT RightAnkle
				{
					OFFSET -2.67343 -7.34519 0.00000
					CHANNELS 3 Zrotation Yrotation Xrotation
					JOINT RightToe
					{
						OFFSET -0.16914 -0.46471 1.77626
						CHANNELS 3 Zrotation Yrotation Xrotation
						End Site
						{
							OFFSET -0.00000 -0.00000 0.92777
						}
					}
				}
			}
		}
	}
	JOINT lowerback
	{
		OFFSET 0 0 0
		CHANNELS 3 Zrotation Yrotation Xrotation
		JOINT Chest
		{
			OFFSET 0.01249 2.14252 0.03842
			CHANNELS 3 Zrotation Yrotation Xrotation
			JOINT Chest2
			{
				OFFSET -0.02957 2.14199 -0.03751
				CHANNELS 3 Zrotation Yrotation Xrotation
				JOINT lowerneck
				{
					OFFSET 0 0 0
					CHANNELS 3 Zrotation Yrotation Xrotation
					JOINT Neck
					{
						OFFSET -0.01678 1.65709 -0.05476
						CHANNELS 3 Zrotation Yrotation Xrotation
						JOINT Head
						{
							OFFSET 0.07912 1.58331 -0.11843
							CHANNELS 3 Zrotation Yrotation Xrotation
							End Site
							{
								OFFSET 0.03298 1.73940 -0.04271
							}
						}
					}
				}
				JOINT LeftCollar
				{
					OFFSET 0 0 0
					CHANNELS 3 Zrotation Yrotation Xrotation
					JOINT LeftShoulder
					{
						OFFSET 3.39556 1.16496 0.08673
CHANNELS 3 Zrotation Xrotation Yrotation
						JOINT LeftElbow
						{
OFFSET 0 -5.239100 -0.000000
CHANNELS 3 Zrotation Xrotation Yrotation
							JOINT LeftWrist
							{
OFFSET 0 -3.314670 0.000000
CHANNELS 3 Zrotation Xrotation Yrotation
								JOINT lhand
								{
									OFFSET 0 0 0
CHANNELS 3 Zrotation Xrotation Yrotation
									JOINT LFingers
									{
OFFSET 0 -0.965900 0.000000
CHANNELS 3 Zrotation Xrotation Yrotation
										End Site
										{
OFFSET 0 -0.778730 0.000000
										}
									}
								}
								JOINT LThumb
								{
OFFSET 0 0.000000 0.000000
CHANNELS 3 Zrotation Xrotation Yrotation
									End Site
									{
OFFSET 0 -0.790620 0.790620
									}
								}
							}
						}
					}
				}
				JOINT RightCollar
				{
					OFFSET 0 0 0
					CHANNELS 3 Zrotation Yrotation Xrotation
					JOINT RightShoulder
					{
						OFFSET -3.27193 1.31331 0.33940
CHANNELS 3 Zrotation Xrotation Yrotation
						JOINT RightElbow
						{
OFFSET 0 -5.302520 0.000000
CHANNELS 3 Zrotation Xrotation Yrotation
							JOINT RightWrist
							{
OFFSET 0 -3.678750 0.000000
CHANNELS 3 Zrotation Xrotation Yrotation
								JOINT rhand
								{
									OFFSET 0 0 0
CHANNELS 3 Zrotation Xrotation Yrotation
									JOINT RFingers
									{
OFFSET 0 -0.594810 0.000000
CHANNELS 3 Zrotation Xrotation Yrotation
										End Site
										{
OFFSET 0 -0.479550 0.000000
										}
									}
								}
								JOINT RThumb
								{
OFFSET 0 0.000000 0.000000
CHANNELS 3 Zrotation Xrotation Yrotation
									End Site
									{
OFFSET 0 -0.486870 0.486870
									}
								}
							}
						}
					}
				}
			}
		}
	}
}
MOTION
Frames: 5
Frame Time: 0.008333333333333333
7.455497 10.261789 13.704684 -1.537671 0.574928 -29.326584 0.000000 0.000000 0.000000 -11.456402 -6.201000 -43.496569 5.746538 14.178077 43.955593 39.232042 -5.050331 -164.396128 2.787914 10.340459 30.089303 0.000000 0.000000 0.000000 4.247382 9.470888 -75.403491 -10.386142 -17.617670 60.766432 -39.660159 -0.720841 169.220154 -0.091064 1.941292 -5.343506 -0.186806 -1.576400 21.841384 -0.894791 -2.141003 9.248556 -0.355227 -1.061306 -2.150370 -0.296562 -0.592111 -8.609805 2.048929 -0.894905 4.604259 0.670870 -0.370631 3.000685 0.000000 0.000000 0.000000 133.770725 -59.815816 30.202859 18.530598 -28.828024 4.803944 34.165810 -11.012999 20.393990 0.000000 0.000000 0.000000 -7.125000 0.000000 0.000000 3.562688 5.821664 3.191713 0.000000 0.000000 0.000000 -95.304869 -51.907913 1.790838 -35.089270 -44.872615 -14.877364 -20.330926 11.613556 26.226575 0.000000 0.000000 0.000000 7.125000 0.000000 0.000000 10.670886 57.376388 -3.259140
7.478887 10.305619 13.908350 -0.158663 -0.818436 -30.079242 0.000000 0.000000 0.000000 -9.767976 -5.384142 -48.040592 6.075177 14.499752 45.280632 39.695149 -1.273320 -169.996566 2.256040 9.379292 26.989778 0.000000 0.000000 0.000000 5.374123 9.236181 -73.303676 -8.675890 -16.590287 54.955729 -39.735016 -0.605237 170.478398 -0.023368 0.952271 -2.617787 -0.525335 -1.259038 22.002240 -1.183825 -1.815679 9.450701 -0.546076 -0.905796 -2.007942 -0.083063 -0.417757 -8.385032 1.645098 -0.663882 4.978903 0.514963 -0.266333 3.078853 0.000000 0.000000 0.000000 129.726169 -58.104586 28.598223 16.438080 -26.108725 3.837999 32.430366 -8.781128 17.620270 0.000000 0.000000 0.000000 -7.125000 0.000000 0.000000 2.886217 9.379795 2.380277 0.000000 0.000000 0.000000 -93.160844 -50.438382 1.629935 -32.177845 -42.683379 -12.863107 -21.189296 11.500045 27.620147 0.000000 0.000000 0.000000 7.125000 0.000000 0.000000 10.476248 58.973323 -3.602256
7.504945 10.295657 14.096105 1.050404 -2.523627 -30.678229 0.000000 0.000000 0.000000 -7.500820 -4.326559 -53.449613 6.979266 15.314145 48.795441 39.899142 1.603295 -173.185759 2.237524 9.344211 26.878135 0.000000 0.000000 0.000000 6.903135 9.180478 -71.015647 -7.367353 -15.633243 50.249853 -39.824461 0.092842 172.052636 -0.005381 -0.465257 1.278439 -0.482780 -0.981221 22.355846 -1.505726 -1.471618 9.641673 -0.990236 -0.730315 -1.982430 0.224503 -0.252492 -8.132633 1.282433 -0.451985 5.057668 0.354064 -0.169619 3.052270 0.000000 0.000000 0.000000 125.543629 -55.820752 26.997539 15.019184 -24.172703 3.233826 32.979160 -9.165805 15.589229 0.000000 0.000000 0.000000 -7.125000 0.000000 0.000000 3.523259 11.609792 2.747292 0.000000 0.000000 0.000000 -90.954492 -48.960300 0.606001 -29.326516 -40.308583 -10.971478 -21.866532 13.329193 29.565436 0.000000 0.000000 0.000000 7.125000 0.000000 0.000000 10.858606 61.090004 -4.284898
7.527691 10.229138 14.269828 2.273893 -4.017652 -31.148013 0.000000 0.000000 0.000000 -5.502499 -3.262631 -59.007337 8.410373 16.407851 54.019683 40.038840 5.150155 -174.043974 1.769449 8.361804 23.822417 0.000000 0.000000 0.000000 8.378947 8.903321 -68.667049 -6.378748 -14.783718 46.479992 -39.883130 1.777192 172.617702 -0.039026 -1.273165 3.500775 -0.487816 -0.792077 22.832297 -1.885698 -1.256815 9.890877 -1.441812 -0.619068 -1.950381 0.338645 -0.062538 -8.149329 1.112472 -0.198350 4.992891 0.291773 -0.048285 3.030960 0.000000 0.000000 0.000000 121.850502 -53.073595 26.084355 13.799538 -22.446404 2.751764 34.974937 -10.646756 14.307078 0.000000 0.000000 0.000000 -7.125000 0.000000 0.000000 5.018101 12.741479 3.801893 0.000000 0.000000 0.000000 -89.046363 -47.468454 -1.346795 -26.650160 -37.839040 -9.285424 -22.043871 14.713972 31.447206 0.000000 0.000000 0.000000 7.125000 0.000000 0.000000 11.925812 63.009774 -5.254978
7.542593 10.097294 14.419612 3.135912 -5.532105 -31.254280 0.000000 0.000000 0.000000 -3.466773 -2.164381 -64.660090 10.242169 17.538900 60.287967 40.210507 8.306470 -174.968185 1.248920 7.082756 19.961873 0.000000 0.000000 0.000000 10.237523 8.826188 -66.511047 -5.676148 -14.106260 43.666280 -39.903795 3.672770 171.628798 -0.051980 -1.470728 4.044980 -0.210267 -0.672814 23.322255 -2.157104 -1.071262 10.066717 -1.933963 -0.516473 -2.003318 0.419372 0.108050 -8.243216 0.914005 0.035861 4.757378 0.224763 0.061038 2.966961 0.000000 0.000000 0.000000 118.463114 -50.313738 26.626384 12.684720 -20.822874 2.340397 36.981138 -10.920437 13.507769 0.000000 0.000000 0.000000 -7.125000 0.000000 0.000000 6.464899 13.320725 4.832703 0.000000 0.000000 0.000000 -87.333518 -45.910185 -3.958702 -24.219866 -35.392828 -7.834821 -22.202771 14.639590 32.887536 0.000000 0.000000 0.000000 7.125000 0.000000 0.000000 12.846039 64.472371 -6.104893
